<svg aria-hidden="true" focusable="false" width="24" height="24" fill="none" class="header-chain-icon rs-icon" aria-label="ChainOpbnbNav" data-category="direction" id="elementIcongSrlOgYfKMfIhINaEEq-N" viewBox="0 0 24 24" xmlns="http://www.w3.org/2000/svg"><path d="M24 12C24 18.6274 18.6274 24 12 24C5.37258 24 0 18.6274 0 12C0 5.37258 5.37258 0 12 0C18.6274 0 24 5.37258 24 12Z" fill="#342E19"></path><g clip-path="url(#clip0_3701_55)"><path fill-rule="evenodd" clip-rule="evenodd" d="M12.003 3.57446L7.69059 6.15699L9.27605 7.11105L12.003 5.48257L14.7299 7.11105L16.3154 6.15699L12.003 3.57446ZM14.7299 8.45989L16.3154 9.41393V11.322L13.5884 12.9505V16.2075L12.003 17.1615L10.4176 16.2075V12.9505L7.69059 11.322V9.41393L9.27605 8.45989L12.003 10.0883L14.7299 8.45989ZM16.3154 12.6709V14.579L14.7299 15.5331V13.6249L16.3154 12.6709ZM14.7141 16.8818L17.4411 15.2534V11.9964L19.0265 11.0424V16.2075L14.7141 18.79V16.8818ZM17.4411 8.73951L15.8556 7.78547L17.4411 6.83141L19.0265 7.78547V9.69358L17.4411 10.6476V8.73951ZM10.4176 19.4809V17.5728L12.003 18.5268L13.5884 17.5728V19.4809L12.003 20.4349L10.4176 19.4809ZM9.27605 15.5331L7.69059 14.579V12.6709L9.27605 13.6249V15.5331ZM12.003 8.73951L10.4176 7.78547L12.003 6.83141L13.5884 7.78547L12.003 8.73951ZM8.15037 7.78547L6.56493 8.73951V10.6476L4.97949 9.69358V7.78547L6.56493 6.83141L8.15037 7.78547ZM4.97949 11.0424L6.56493 11.9964V15.2534L9.29188 16.8818V18.79L4.97949 16.2075V11.0424Z" fill="#FFD039"></path></g><defs><clipPath id="clip0_3701_55"><rect width="14.0625" height="16.875" fill="white" transform="translate(4.96875 3.5625)"></rect></clipPath></defs></svg>