<svg width="12" height="12" viewBox="0 0 12 12" fill="none" xmlns="http://www.w3.org/2000/svg">
<path d="M10.172 4.67163L8.89844 5.94486L10.2266 7.27274L11.5001 5.99949L10.172 4.67163Z" fill="#F0B90A"/>
<path d="M6.00157 8.84249L3.99697 6.83838L2.66846 8.16651L6.00157 11.4989L9.3348 8.16651L8.00626 6.83838L6.00157 8.84249Z" fill="#F0B90A"/>
<path d="M1.82817 4.67163L0.5 5.99949L1.77353 7.27277L3.10171 5.94486L1.82817 4.67163Z" fill="#F0B90A"/>
<path d="M6.00038 4.83276L4.88867 5.94422L6.00038 7.05563L7.11207 5.94422L6.00038 4.83276Z" fill="#F0B90A"/>
<path d="M8.00349 5.05211L9.27856 3.7774L5.9989 0.5L2.7207 3.7774L3.99423 5.05211L5.9989 3.04793L8.00349 5.05211Z" fill="#F0B90A"/>
</svg>
