<svg width="81" height="21" fill="none" xmlns="http://www.w3.org/2000/svg"><path fill-rule="evenodd" clip-rule="evenodd" d="m80.788 6.171.026.373.025 2.045v.173c0 2.167-.392 3.022-1.665 3.684-1.093.585-2.314.72-5.792.72-3.535 0-4.731-.174-5.901-.913-1.325-.855-1.794-1.929-1.794-4.269v-.27c.026-.662.026-1.15.026-1.42.026-2.321.077-2.707.36-3.549a3.627 3.627 0 0 1 1.581-1.89C68.953.135 69.917 0 73.35 0c3.922 0 4.68.077 5.792.624.675.334 1.17.88 1.376 1.497.206.605.231.759.257 1.89h-3.298l-.026-.257c-.128-1.478-.597-1.678-4.133-1.678-1.897 0-2.81.116-3.33.45-.675.431-.88.997-.88 2.591l-.026 1.305.025 1.678c.026 1.536.18 2.083.804 2.475.572.366 1.504.489 3.587.489 3.51 0 4.03-.315 4.03-2.591v-.45h-4.39V6.17h7.65zM48.484 3.62l.026.27v.007h3.144v-.47c0-1.363-.47-2.237-1.48-2.764-.931-.489-2.153-.643-5.04-.643-3.22 0-4.441.174-5.611.778-.932.489-1.35 1.44-1.35 3.06 0 1.382.386 2.237 1.298 2.803.881.566 1.53.662 5.066.816l1.82.097c2.024.077 2.442.373 2.442 1.658 0 1.633-.495 1.929-3.407 1.929l-.47-.02h-1.536c-1.581-.019-2.102-.507-2.102-1.909v-.289h-3.17c0 .177-.009.328-.016.445-.005.073-.009.134-.009.179 0 1.446.547 2.417 1.588 2.944 1.01.508 2.128.623 5.535.623 3.452 0 4.7-.199 5.792-.957.778-.547 1.067-1.383 1.067-3.157 0-1.247-.257-1.91-.906-2.475-.81-.7-1.826-.9-5.252-1.035a98.77 98.77 0 0 1-1.735-.087l-.162-.01c-.258 0-.494-.02-.711-.038a15.235 15.235 0 0 0-.246-.02c-1.196-.115-1.588-.546-1.588-1.696 0-1.402.7-1.697 3.921-1.697 2.469 0 3.04.295 3.092 1.658zm8.679 9.45h3.33V.09h-3.33v12.98zM.663 8.444c-.212-.15-.425-.3-.663-.44v3.484c.234.137.444.282.652.427.752.521 1.48 1.026 3.237 1.026 1.074 0 1.957-.342 2.877-.698 1.002-.388 2.049-.793 3.436-.793 1.347 0 2.387.373 3.427.745 1.04.373 2.08.746 3.426.746 1.342 0 2.274-.38 3.198-.755.908-.37 1.808-.736 3.083-.736 1.342 0 2.366.396 3.359.78.933.36 1.838.711 2.954.711 1.686 0 2.554-.48 3.417-.956.314-.174.628-.347.98-.497V8.004c-.365.153-.687.335-1.012.518-.85.479-1.716.967-3.385.967-1.12 0-2.026-.35-2.959-.71-.991-.381-2.013-.775-3.354-.775-1.275 0-2.175.365-3.083.733-.924.374-1.856.752-3.198.752-1.348 0-2.39-.372-3.43-.743s-2.08-.742-3.423-.742c-1.387 0-2.434.404-3.436.79-.92.355-1.803.695-2.877.695-1.746 0-2.48-.518-3.226-1.045zM0 5.336v1.91c.225.131.428.271.63.41.757.52 1.486 1.023 3.26 1.023 1.073 0 1.956-.338 2.876-.69 1.002-.382 2.049-.783 3.436-.783 1.343 0 2.382.368 3.422.736 1.041.368 2.083.737 3.431.737 1.342 0 2.274-.375 3.198-.746.908-.365 1.808-.727 3.083-.727 1.34 0 2.363.391 3.354.77.933.356 1.84.703 2.959.703 1.699 0 2.565-.474 3.43-.948.31-.17.62-.338.967-.486v-1.91c-.357.152-.675.33-.993.508-.858.48-1.726.965-3.404.965-1.116 0-2.021-.346-2.954-.702-.993-.38-2.017-.77-3.36-.77-1.274 0-2.174.362-3.082.726-.924.372-1.856.746-3.198.746-1.347 0-2.387-.368-3.426-.736-1.04-.368-2.08-.736-3.427-.736-1.387 0-2.434.4-3.436.783-.92.352-1.803.689-2.877.689-1.747 0-2.477-.511-3.225-1.035C.452 5.625.24 5.475 0 5.336zm0-.83V3.389c.239.14.452.289.664.437.748.524 1.478 1.035 3.225 1.035 1.074 0 1.957-.337 2.877-.689 1.002-.383 2.049-.783 3.436-.783 1.347 0 2.387.368 3.427.736s2.08.736 3.426.736c1.342 0 2.274-.374 3.198-.745.908-.365 1.808-.727 3.083-.727 1.342 0 2.366.391 3.359.77.933.357 1.838.702 2.954.702 1.678 0 2.546-.485 3.404-.965.319-.178.636-.355.993-.507v1.119c-.348.147-.657.316-.967.486-.865.473-1.731.947-3.43.947-1.12 0-2.026-.346-2.959-.703-.991-.378-2.013-.769-3.354-.769-1.275 0-2.175.362-3.083.727-.924.37-1.856.745-3.198.745-1.348 0-2.39-.368-3.43-.737-1.04-.367-2.08-.735-3.423-.735-1.387 0-2.434.4-3.436.783-.92.352-1.803.69-2.877.69-1.75 0-2.482-.501-3.23-1.011A9.412 9.412 0 0 0 0 4.507zm34.72 7.6c.264 0 .496.09.676.27a.84.84 0 0 1 .27.636c0 .231-.103.45-.277.61a1.007 1.007 0 0 1-.668.264.96.96 0 0 1-.669-.27.832.832 0 0 1-.27-.624c0-.238.103-.463.29-.636a.892.892 0 0 1 .649-.25zm-.006-.174c-.405 0-.758.192-.964.514a1.004 1.004 0 0 0 .154 1.292c.219.206.502.321.804.321.296 0 .579-.109.804-.308.212-.193.334-.457.334-.752 0-.283-.11-.547-.322-.746a1.12 1.12 0 0 0-.81-.321zm-.462.45v1.183h.302v-.483h.148l.244.482h.34l-.282-.527c.173-.038.276-.16.276-.315 0-.225-.18-.34-.54-.34h-.488zm.308.186h.129c.186 0 .276.052.276.174 0 .115-.083.167-.257.167h-.148v-.34zM.836 19.1H.25c.006.475.16.835.463 1.073.302.238.745.36 1.33.36.547 0 .965-.103 1.26-.321.296-.212.444-.514.444-.907 0-.302-.09-.533-.27-.694-.18-.16-.495-.283-.951-.373l-.868-.173c-.264-.052-.444-.123-.547-.2a.415.415 0 0 1-.148-.34c0-.2.09-.354.264-.463.174-.11.43-.16.765-.16.34 0 .598.057.771.18.168.115.264.301.283.552h.56c-.007-.405-.142-.707-.412-.926-.27-.212-.656-.321-1.157-.321-.534 0-.939.103-1.228.308-.29.206-.43.502-.43.881 0 .29.09.52.27.688.18.167.469.283.86.354l.978.173c.244.039.418.11.52.193a.44.44 0 0 1 .155.36c0 .212-.09.38-.283.495-.193.116-.463.174-.81.174-.405 0-.707-.078-.913-.226-.205-.147-.308-.379-.321-.687zm10.433-2.604v2.469c0 .514-.148.9-.443 1.17-.296.27-.727.398-1.299.398s-1.003-.135-1.292-.398c-.296-.27-.444-.656-.444-1.17v-2.469h.553v2.23c0 .432.097.753.29.959.192.205.488.308.893.308s.707-.103.9-.308c.193-.206.29-.527.29-.958v-2.23h.552zm4.668 2.604h-.585c.006.476.16.835.469 1.073.302.238.746.36 1.33.36.54 0 .965-.103 1.26-.321.296-.212.444-.514.444-.907 0-.302-.09-.533-.27-.694-.18-.16-.495-.283-.951-.373l-.862-.173c-.263-.052-.443-.122-.546-.2a.415.415 0 0 1-.148-.34c0-.2.084-.354.264-.463.173-.11.43-.16.765-.16.34 0 .597.057.77.18.168.115.265.301.284.552h.553c-.007-.405-.142-.707-.412-.926-.27-.212-.655-.321-1.157-.321-.534 0-.939.103-1.228.308-.29.206-.43.502-.43.881 0 .29.09.52.27.688.18.167.469.283.86.354l.972.173c.244.039.418.11.52.193a.44.44 0 0 1 .155.36c0 .212-.09.38-.283.495-.193.116-.463.174-.81.174-.405 0-.707-.078-.913-.225-.206-.148-.309-.38-.321-.688zm9.983 1.208c-.141.078-.29.135-.463.168a3.311 3.311 0 0 1-.617.05c-.662 0-1.183-.186-1.569-.558-.385-.373-.578-.875-.578-1.511 0-.637.193-1.138.578-1.51.386-.374.913-.56 1.575-.56.663 0 1.183.186 1.569.56.386.372.579.88.579 1.51 0 .321-.058.623-.168.893-.109.27-.27.495-.482.67l.534.423-.315.399-.643-.534zm-.463-.385-.411-.335.302-.385.578.469c.161-.129.283-.296.367-.502a1.9 1.9 0 0 0 .128-.707c0-.488-.141-.867-.417-1.137-.277-.27-.663-.412-1.158-.412-.495 0-.88.135-1.157.412-.276.276-.418.655-.418 1.137 0 .489.142.875.418 1.145.283.27.675.405 1.19.405.122 0 .231-.007.327-.02.09-.019.174-.038.251-.07zm9.038-.958v-2.462h-.552v2.23c0 .431-.097.752-.29.952-.192.205-.495.308-.9.308s-.7-.103-.893-.308c-.193-.206-.29-.527-.29-.958v-2.23h-.552v2.468c0 .514.148.9.443 1.17.29.263.72.398 1.292.398.572 0 1.003-.128 1.299-.398.296-.27.444-.656.444-1.17zm4.263 1.466v-3.928h3.124v.508h-2.571v1.157h2.41v.514h-2.41v1.222h2.61v.527h-3.163zm7.213-3.928v3.928h.553v-1.826h2.397v1.826h.553v-3.928h-.553v1.588h-2.397v-1.588h-.553zm7.27 3.928 1.865-3.928h.585l1.748 3.928h-.578l-.502-1.119h-2.005l-.527 1.119h-.585zm1.344-1.633h1.543l-.752-1.678-.791 1.678zm6.66-2.295v3.928h.54v-3.356l2.475 3.356h.752v-3.928h-.54v3.355l-2.475-3.355h-.752zm8.023 3.928v-3.928h.752l2.475 3.355v-3.355h.54v3.928h-.752l-2.475-3.356v3.356h-.54zm9.398-3.928-1.864 3.928h.591l.521-1.119h2.006l.501 1.119H81l-1.749-3.928h-.585zm1.023 2.295h-1.543l.797-1.678.746 1.678z" fill="#F4F7F9"/></svg>