<svg width="127" height="21" fill="none" xmlns="http://www.w3.org/2000/svg"><path d="M2.051 3.04c0-.435-.02-.781-.061-1.04-.041-.258-.137-.456-.287-.592-.137-.15-.342-.252-.616-.306A9.787 9.787 0 0 0 0 .959V.49h6.319c1.463 0 2.776.178 3.938.531 1.163.34 2.14.837 2.934 1.49a6.407 6.407 0 0 1 1.846 2.408c.424.953.636 2.028.636 3.225a8.081 8.081 0 0 1-.677 3.306 7.05 7.05 0 0 1-1.908 2.571c-.724.599-1.661 1.068-2.81 1.409-1.135.326-2.352.49-3.652.49H0v-.43a7.724 7.724 0 0 0 1.067-.122c.273-.068.478-.177.615-.326.15-.163.246-.374.287-.633.055-.258.082-.592.082-1V3.041zm2.38 11.062c0 .381.082.64.246.776.178.122.493.183.944.183 1.053 0 1.935-.068 2.646-.204a6.479 6.479 0 0 0 1.99-.755c1.915-1.088 2.873-3.02 2.873-5.796 0-1.279-.247-2.415-.739-3.408a5.997 5.997 0 0 0-2.134-2.429 6.086 6.086 0 0 0-1.99-.836c-.738-.177-1.62-.266-2.646-.266-.465 0-.78.062-.944.184-.164.122-.246.36-.246.714v11.837zM17.089 6.49c.341-.123.656-.232.943-.327.288-.109.561-.21.82-.306.274-.109.541-.21.801-.306.274-.109.568-.224.882-.347l.144.04v2.144c.287-.422.547-.769.78-1.041.232-.286.457-.51.676-.674.22-.176.431-.299.636-.367.22-.068.452-.102.698-.102.396 0 .71.116.943.347.233.218.35.51.35.878 0 .34-.083.605-.247.795-.164.177-.383.266-.657.266-.15 0-.3-.027-.45-.082-.138-.068-.302-.197-.493-.388a1.649 1.649 0 0 0-.349-.244.641.641 0 0 0-.267-.082c-.164 0-.341.068-.533.204a2.996 2.996 0 0 0-.923 1.082 1.37 1.37 0 0 0-.164.612v5.245c0 .326.027.598.082.816.055.218.157.395.308.53.15.123.355.218.615.286.26.068.588.11.985.123v.326h-5.642v-.326c.37-.068.663-.136.882-.204.233-.082.404-.177.513-.286a.693.693 0 0 0 .226-.428c.04-.191.061-.43.061-.715V8.143c0-.517-.061-.878-.184-1.082-.123-.217-.329-.326-.616-.326-.15 0-.287.006-.41.02a3.61 3.61 0 0 0-.41.082V6.49zM32.967 13.47c0 .516.048.877.144 1.081.096.19.28.286.554.286.315 0 .656-.143 1.026-.429V15c-.397.435-.746.735-1.047.898-.3.163-.65.245-1.046.245-.479 0-.834-.13-1.067-.388-.218-.272-.355-.721-.41-1.347-.711.612-1.333 1.055-1.867 1.327-.533.272-1.053.408-1.559.408-.739 0-1.34-.231-1.805-.694-.452-.463-.677-1.061-.677-1.796 0-.367.068-.735.205-1.102.15-.38.362-.687.636-.918.246-.218.472-.402.677-.551.219-.164.5-.327.841-.49A15.32 15.32 0 0 1 28.905 10c.547-.218 1.272-.51 2.175-.878v-1.49c0-.639-.157-1.122-.472-1.448-.3-.327-.738-.49-1.313-.49-.479 0-.882.116-1.21.347-.315.217-.472.483-.472.796 0 .122.014.279.041.47.041.19.062.346.062.469 0 .272-.11.503-.329.693-.205.19-.444.286-.718.286-.273 0-.512-.095-.718-.286a1.011 1.011 0 0 1-.287-.714c0-.3.082-.605.246-.918.178-.313.417-.592.718-.837.315-.272.732-.483 1.252-.633a6.356 6.356 0 0 1 1.723-.224c.711 0 1.306.122 1.785.367.492.232.868.558 1.128.98.164.272.28.592.349.959.068.354.102.837.102 1.449v4.571zM31.08 9.693c-.711.258-1.32.51-1.826.755a5.777 5.777 0 0 0-1.21.735c-.301.245-.52.51-.657.796a2.147 2.147 0 0 0-.205.938v.102c0 .245.041.483.123.715.082.217.192.408.329.571.15.163.32.293.512.388.192.095.39.143.595.143.247 0 .52-.048.82-.143.316-.109.61-.238.883-.388.274-.15.445-.306.513-.47.082-.162.123-.421.123-.775V9.694zM43.029 6.857c.15.395.253.742.307 1.041.069.286.103.605.103.96 0 .489-.096.952-.287 1.387a3.954 3.954 0 0 1-.78 1.163 4.026 4.026 0 0 1-1.149.796 3.508 3.508 0 0 1-1.764.265c-.15-.013-.328-.034-.533-.06l-.452-.062c-.164.04-.328.122-.492.245a2.43 2.43 0 0 0-.451.388 2.517 2.517 0 0 0-.349.428.863.863 0 0 0-.123.408c0 .177.144.32.43.429.302.095.773.156 1.416.184l3.016.142c.861.041 1.545.286 2.051.735.506.436.76 1.014.76 1.735 0 .68-.206 1.265-.616 1.755-.41.503-.923.918-1.539 1.245a7.534 7.534 0 0 1-1.99.714A8.505 8.505 0 0 1 38.66 21c-.56 0-1.087-.061-1.58-.184a4.803 4.803 0 0 1-1.292-.47 2.93 2.93 0 0 1-.882-.713 1.43 1.43 0 0 1-.308-.878c0-.435.171-.87.513-1.306.356-.435.957-.952 1.805-1.551-.492-.231-.827-.429-1.005-.592a.924.924 0 0 1-.246-.653c0-.231.082-.463.246-.694.178-.245.458-.544.841-.898l1.005-.938c-.793-.381-1.36-.81-1.702-1.286-.329-.49-.493-1.102-.493-1.837 0-.53.103-1.027.308-1.49a3.86 3.86 0 0 1 .82-1.224 3.953 3.953 0 0 1 1.252-.837 3.83 3.83 0 0 1 1.518-.306c.63 0 1.258.115 1.887.347l.534.204.636.224c.205.055.424.082.656.082h1.806v.857h-1.95zm-5.621 9.123c-.233.272-.424.503-.575.694-.15.19-.267.36-.349.51-.082.15-.143.285-.184.408a1.778 1.778 0 0 0-.041.388c0 .517.3.925.902 1.224.616.313 1.443.47 2.483.47a9.39 9.39 0 0 0 1.826-.164c.547-.109 1.012-.265 1.395-.47.396-.19.697-.428.902-.713.22-.273.328-.579.328-.919 0-.422-.218-.714-.656-.877-.438-.164-1.183-.245-2.236-.245-.287 0-.616-.014-.985-.041a28.034 28.034 0 0 1-1.067-.061c-.342-.027-.67-.062-.984-.102a7.4 7.4 0 0 1-.76-.102zm.102-7.858c0 .558.055 1.075.164 1.551.123.463.288.864.493 1.205.218.326.471.585.759.775.3.177.636.265 1.005.265.52 0 .937-.19 1.251-.571.315-.395.472-.918.472-1.571 0-.477-.061-.96-.184-1.45a5.265 5.265 0 0 0-.493-1.346 2.285 2.285 0 0 0-.738-.858c-.301-.217-.63-.326-.985-.326-.547 0-.978.204-1.292.612-.301.408-.452.953-.452 1.633v.081zM50.778 5.204a5.4 5.4 0 0 1 2.072.388c.63.258 1.17.626 1.62 1.102a4.909 4.909 0 0 1 1.088 1.653c.26.64.39 1.347.39 2.122 0 .817-.137 1.572-.41 2.266a5.698 5.698 0 0 1-1.088 1.796 5 5 0 0 1-1.662 1.183 4.903 4.903 0 0 1-2.051.429 5.112 5.112 0 0 1-2.052-.408 4.728 4.728 0 0 1-1.62-1.143 5.452 5.452 0 0 1-1.067-1.735 5.963 5.963 0 0 1-.39-2.183c0-.803.123-1.538.37-2.205.26-.68.615-1.258 1.066-1.734a4.5 4.5 0 0 1 1.621-1.123 5.365 5.365 0 0 1 2.113-.408zm-.349.653c-.82 0-1.477.333-1.97 1-.492.667-.738 1.551-.738 2.653 0 .83.09 1.64.267 2.429.178.775.43 1.47.759 2.081.246.477.575.844.985 1.102.41.259.855.388 1.333.388.862 0 1.532-.374 2.01-1.122.493-.762.74-1.803.74-3.123 0-.993-.144-1.918-.432-2.775-.287-.857-.677-1.504-1.169-1.939a2.485 2.485 0 0 0-.82-.53 2.704 2.704 0 0 0-.965-.164zM57.353 6.245c.643-.177 1.197-.34 1.662-.49.478-.15.998-.333 1.559-.55l.184.04v1.857c.397-.367.746-.673 1.047-.918.3-.245.574-.436.82-.572.26-.15.506-.251.739-.306.246-.068.506-.102.78-.102.86 0 1.538.306 2.03.918.493.613.739 1.47.739 2.572v5.347c0 .558.096.939.287 1.143.191.204.568.34 1.128.408v.326h-4.862v-.326c.288-.027.527-.075.718-.143a.926.926 0 0 0 .452-.327c.123-.15.205-.347.246-.591.04-.245.061-.551.061-.919V8.735c0-1.497-.567-2.245-1.702-2.245-.192 0-.376.02-.554.061a2.51 2.51 0 0 0-.554.204 3.92 3.92 0 0 0-.595.408c-.205.177-.451.395-.739.653v6.551c0 .422.11.721.329.898.218.164.629.272 1.23.327v.326h-4.964v-.326c.3-.027.54-.068.718-.123a.986.986 0 0 0 .451-.306c.11-.136.185-.306.226-.51a4.51 4.51 0 0 0 .061-.816V8.04c0-.572-.061-.96-.184-1.163-.123-.218-.349-.327-.677-.327a1.78 1.78 0 0 0-.636.102v-.408zM84.94 15.918h-3.774l-5.58-7.183-1.293.06v4.613c0 .408.02.742.062 1 .054.259.157.47.307.633.15.15.363.258.636.326.274.055.636.096 1.088.123v.428h-6.483v-.428c.438-.041.786-.095 1.046-.164.274-.068.479-.183.616-.346.136-.164.225-.388.266-.674.041-.3.062-.694.062-1.184V3.041c0-.408-.02-.735-.062-.98-.04-.258-.13-.462-.266-.612-.137-.15-.342-.259-.616-.327A6.795 6.795 0 0 0 69.903.96V.49h6.462c1.149 0 2.175.157 3.077.47.917.3 1.594.708 2.031 1.225.287.313.5.68.636 1.102.137.408.205.85.205 1.326 0 1.061-.335 1.898-1.005 2.51-.656.613-1.73 1.068-3.22 1.368l4.82 5.918c.329.381.636.646.923.796.301.15.67.245 1.108.286v.428zm-10.647-7.98a33.106 33.106 0 0 0 1.416-.06c.41-.028.766-.068 1.066-.123.315-.068.602-.15.862-.245s.526-.217.8-.367c.424-.231.752-.572.985-1.02.232-.463.349-.987.349-1.572 0-1.102-.35-1.905-1.047-2.408-.684-.517-1.778-.776-3.282-.776-.465 0-.773.062-.923.184-.15.109-.226.327-.226.653V7.94zM90.58 5.204a5.4 5.4 0 0 1 2.072.388c.63.258 1.17.626 1.62 1.102a4.909 4.909 0 0 1 1.088 1.653c.26.64.39 1.347.39 2.122 0 .817-.137 1.572-.41 2.266a5.694 5.694 0 0 1-1.088 1.796 5 5 0 0 1-1.661 1.183 4.902 4.902 0 0 1-2.052.429 5.112 5.112 0 0 1-2.051-.408 4.728 4.728 0 0 1-1.621-1.143 5.452 5.452 0 0 1-1.067-1.735 5.963 5.963 0 0 1-.39-2.183c0-.803.124-1.538.37-2.205.26-.68.615-1.258 1.067-1.734a4.5 4.5 0 0 1 1.62-1.123 5.365 5.365 0 0 1 2.113-.408zm-.349.653c-.82 0-1.477.333-1.969 1s-.739 1.551-.739 2.653c0 .83.09 1.64.267 2.429.178.775.431 1.47.76 2.081.245.477.574.844.984 1.102.41.259.855.388 1.333.388.862 0 1.532-.374 2.01-1.122.493-.762.74-1.803.74-3.123 0-.993-.144-1.918-.431-2.775-.288-.857-.677-1.504-1.17-1.939a2.486 2.486 0 0 0-.82-.53 2.703 2.703 0 0 0-.965-.164zM105.001 13.47c0 .516.047.877.143 1.081.096.19.281.286.554.286.315 0 .657-.143 1.026-.429V15c-.397.435-.746.735-1.046.898-.301.163-.65.245-1.047.245-.478 0-.834-.13-1.066-.388-.219-.272-.356-.721-.411-1.347-.711.612-1.333 1.055-1.867 1.327-.533.272-1.053.408-1.559.408-.738 0-1.34-.231-1.805-.694-.451-.463-.677-1.061-.677-1.796 0-.367.068-.735.205-1.102.15-.38.363-.687.636-.918.246-.218.472-.402.677-.551.219-.164.5-.327.841-.49.342-.177.787-.374 1.334-.592.547-.218 1.272-.51 2.174-.878v-1.49c0-.639-.157-1.122-.472-1.448-.3-.327-.738-.49-1.313-.49-.478 0-.882.116-1.21.347-.314.217-.472.483-.472.796 0 .122.014.279.041.47.041.19.062.346.062.469 0 .272-.11.503-.328.693-.206.19-.445.286-.718.286-.274 0-.513-.095-.719-.286a1.011 1.011 0 0 1-.287-.714c0-.3.082-.605.246-.918.178-.313.418-.592.719-.837.314-.272.731-.483 1.25-.633a6.356 6.356 0 0 1 1.724-.224c.711 0 1.306.122 1.785.367.492.232.868.558 1.128.98.164.272.281.592.349.959.068.354.103.837.103 1.449v4.571zm-1.888-3.776c-.711.258-1.32.51-1.826.755a5.794 5.794 0 0 0-1.21.735c-.3.245-.52.51-.656.796a2.145 2.145 0 0 0-.206.938v.102c0 .245.041.483.123.715.083.217.192.408.329.571.15.163.321.293.513.388.191.095.389.143.595.143.246 0 .519-.048.82-.143.315-.109.609-.238.882-.388.274-.15.445-.306.513-.47.082-.162.123-.421.123-.775V9.694zM107.256 6.49c.341-.123.656-.232.943-.327.287-.109.561-.21.821-.306.273-.109.54-.21.8-.306.273-.109.568-.224.882-.347l.144.04v2.144c.287-.422.547-.769.779-1.041.233-.286.458-.51.677-.674.219-.176.431-.299.636-.367.219-.068.452-.102.698-.102.396 0 .711.116.943.347.233.218.349.51.349.878 0 .34-.082.605-.246.795-.164.177-.383.266-.657.266-.15 0-.3-.027-.451-.082-.137-.068-.301-.197-.492-.388a1.657 1.657 0 0 0-.349-.244.638.638 0 0 0-.267-.082c-.164 0-.342.068-.533.204a2.71 2.71 0 0 0-.513.47c-.164.19-.301.394-.41.612-.11.217-.164.421-.164.612v5.245c0 .326.027.598.082.816.054.218.157.395.307.53.151.123.356.218.616.286.26.068.588.11.985.123v.326h-5.642v-.326a7.97 7.97 0 0 0 .882-.204c.233-.082.404-.177.513-.286a.697.697 0 0 0 .226-.428c.041-.191.061-.43.061-.715V8.143c0-.517-.061-.878-.184-1.082-.123-.217-.329-.326-.616-.326-.15 0-.287.006-.41.02-.11.014-.246.04-.41.082V6.49z" fill="#F4F7F9"/><path d="m114.873 1.02.698-.163.923-.245.718-.224c.232-.068.444-.13.636-.184a19.6 19.6 0 0 1 .656-.204l.082.061v9.796L121.807 7c.356-.327.534-.605.534-.837 0-.136-.083-.231-.247-.285-.164-.055-.471-.096-.923-.123V5.43h4.78v.367a3.91 3.91 0 0 0-1.005.082c-.301.054-.629.183-.985.387a9.437 9.437 0 0 0-1.251.898c-.479.381-1.087.898-1.826 1.551l-.677.613 3.611 4.55c.478.6.916 1.028 1.313 1.286.41.245.875.388 1.395.429v.326h-5.088v-.326h.431a.53.53 0 0 0 .348-.102.312.312 0 0 0 .144-.265.392.392 0 0 0-.061-.205.809.809 0 0 0-.206-.285 1.92 1.92 0 0 1-.143-.204l-.082-.102-3.283-4.347v4.285c0 .395.096.687.288.878.205.177.54.279 1.005.306l.472.04v.327h-5.478v-.326c.41-.068.732-.13.964-.184.246-.068.424-.15.534-.245a.746.746 0 0 0 .205-.428 4.95 4.95 0 0 0 .041-.715V2.776c0-.558-.068-.932-.205-1.123-.137-.19-.404-.286-.8-.286-.11 0-.226.007-.349.02-.11 0-.239.008-.39.021V1.02z" fill="#F4F7F9"/></svg>