<svg width="99" height="33" fill="none" xmlns="http://www.w3.org/2000/svg"><path d="M0 .252C.083.242.166.229.249.229h28.009l-2.64 7.112c-3.601-1.802-7.18-3.597-10.789-5.405v19.45h-1.397V1.928C9.816 3.744 6.238 5.54 2.641 7.341c-.115-.306-.227-.6-.335-.89C1.566 4.455.823 2.455.08.46.06.402.029.347 0 .293V.252zm26.223 1.403h-8.731l-.01.032c2.446 1.228 4.895 2.455 7.357 3.69l1.384-3.722zm-15.457.032c-.003-.013-.01-.022-.013-.035H2.028c.466 1.25.922 2.48 1.381 3.725 2.468-1.238 4.914-2.462 7.357-3.69z" fill="#F4F7F9"/><path d="M21.855 28.468H6.404V13.005h4.19v1.39H7.807v12.657h12.644v-12.64h-2.796v-1.404h4.2v15.46zM31.59 12.176c-.028-.175-.057-.338-.086-.526.53-.077 1.053-.15 1.598-.227v-.233c0-3.323 0-6.645.003-9.968 0-.173-.022-.256-.226-.275-.45-.041-.896-.12-1.371-.188.028-.182.057-.35.082-.5.629 0 1.241.003 1.853 0 1.062-.007 2.121-.007 3.183-.03 1.046-.022 2.08.023 3.065.422 1.486.6 2.414 1.703 2.812 3.233.412 1.582.364 3.17-.197 4.714-.593 1.63-1.809 2.618-3.416 3.173-1.03.354-2.089.437-3.173.402-1.183-.039-2.373-.004-3.559.003h-.568zm3.059-.903c.609.045 1.202.083 1.792.134 1.671.144 2.969-.504 3.776-1.955 1.023-1.846 1.1-3.807.38-5.778-.514-1.4-1.55-2.267-3.005-2.621-.976-.24-1.955-.087-2.943-.051v10.271zM87.96 5.1h-3.633v6.41c.482.034.957.07 1.464.104l-.08.546h-3.945c-.025-.144-.054-.306-.089-.495l1.25-.159V5.09h-1.572c.067-.173.102-.306.169-.424.2-.36.504-.504.918-.437.154.025.316.003.46.003.047-.367.07-.715.137-1.053.115-.567.418-1.046.781-1.486.408-.494.817-.991 1.231-1.48.058-.066.153-.133.233-.136C86.582.045 87.88.022 89.178 0c.047 0 .095.003.162.006V11.5l1.362.16c-.025.175-.048.334-.073.493h-3.623l-.086-.494c.347-.054.682-.105 1.033-.156.006-2.124.006-4.254.006-6.404zm.006-4.083c-.102.032-.188.055-.271.09-.428.188-.87.264-1.34.236-.376-.023-.752-.01-1.129 0a.388.388 0 0 0-.226.102c-.402.389-.625.867-.641 1.428-.013.475-.003.954-.003 1.429h3.61V1.017zM58.563 9.242c-.261-.14-.507-.255-.733-.402-1.378-.902-1.164-2.64-.383-3.52.491-.556 1.132-.868 1.805-1.133 1.224-.478 2.267-.115 3.26.654.267-.252.55-.523.838-.784a.341.341 0 0 1 .194-.096c.284-.01.571-.003.87-.003V5.2c-.519-.012-1.048-.05-1.498.332 0-.01-.01.013-.003.029.411 1.036-.003 2.242-.918 2.914-.642.472-1.369.74-2.13.935a.366.366 0 0 1-.167.006c-.306-.076-.504.064-.682.3-.185.242-.405.462-.606.692-.179.207-.163.462.07.615a.839.839 0 0 0 .428.122c1.026.01 2.053-.004 3.077.01.325.002.657.04.973.12.963.243 1.428 1.1 1.141 2.054-.169.562-.53.992-.96 1.371-.909.8-1.98 1.298-3.135 1.61-.309.084-.666.014-.998-.015-.628-.054-1.24-.185-1.785-.526-.654-.412-1.056-1.298-.916-2.048.013-.07.086-.137.147-.188.491-.411.989-.82 1.48-1.23.047-.039.092-.084.134-.122-.224-.127-.45-.239-.654-.383-.39-.274-.603-.896-.478-1.348.015-.058.082-.106.133-.144l1.496-1.065zm1.64 3.068v.025c-.454 0-.91-.003-1.363.003-.07 0-.169.016-.204.064-.306.396-.625.785-.89 1.209-.095.156-.092.405-.06.6.064.395.348.653.689.819 1.151.555 2.293.539 3.383-.166.479-.31.807-.743.932-1.314.14-.64-.077-.992-.712-1.135a.847.847 0 0 0-.124-.02l-1.652-.085zm-.096-3.677c.73.006 1.285-.335 1.447-.967.23-.896.07-1.74-.532-2.455-.421-.498-1.008-.606-1.623-.469-.574.128-.9.526-1.053 1.078a2.637 2.637 0 0 0-.032 1.221c.192.992.861 1.585 1.793 1.592zM49.443 32.241c-.029-.178-.054-.341-.086-.53.414-.057.82-.114 1.24-.175v-10.21c-.408.034-.813.072-1.234.11a31.547 31.547 0 0 0-.093-.525c.868-.185 1.678-.571 2.596-.587l.093 1.397c.118-.09.21-.157.303-.227.564-.43 1.132-.864 1.7-1.291.057-.045.133-.096.2-.096 1.011.006 1.92.274 2.6 1.075.44.52.666 1.138.771 1.805.14.877.147 1.75-.095 2.611-.405 1.455-1.42 2.293-2.816 2.714-.54.163-1.085.345-1.662.214-.322-.073-.634-.191-.956-.293v3.307c.605.057 1.205.114 1.836.172-.022.16-.032.31-.07.453-.01.041-.105.083-.16.083-.71-.013-1.422-.045-2.133-.048-.606-.004-1.211.028-1.82.044-.068-.003-.128-.003-.214-.003zm2.545-7.618c0 .656-.004 1.31.003 1.967 0 .09.032.198.086.265.615.74 1.416 1.027 2.35.848.756-.143 1.183-.698 1.451-1.374.348-.88.354-1.796.233-2.72-.077-.578-.23-1.133-.558-1.627-.507-.762-1.2-.966-2.003-.526-.497.271-.95.631-1.425.944-.106.07-.14.15-.14.274.006.65.003 1.301.003 1.949zM42.12 19.58c-.28 0-.532.007-.78-.006-.052-.003-.125-.08-.147-.137-.153-.418-.287-.845-.444-1.263a.707.707 0 0 0-.194-.287c-.9-.75-1.942-1.065-3.106-.988-.982.063-1.869.376-2.596 1.061-.686.645-1.075 1.451-1.272 2.354-.38 1.732-.24 3.403.65 4.962.724 1.266 1.783 2.102 3.243 2.389 1.104.217 2.073-.055 2.931-.762a.586.586 0 0 0 .134-.182c.271-.52.539-1.04.8-1.563.061-.124.134-.172.275-.166.22.013.443.003.692.003L42 26.46c-.035.17-.083.338-.109.51-.029.192-.105.313-.296.4-1.17.516-2.357.978-3.62 1.205-.622.111-1.237-.013-1.84-.17-2.52-.66-4.155-2.611-4.388-5.22-.121-1.378.045-2.704.724-3.929.698-1.26 1.786-2.066 3.103-2.58.848-.331 1.722-.602 2.637-.583 1.397.025 2.657.51 3.801 1.304.048.035.102.108.102.163.007.666.007 1.33.007 2.022zM81.15 11.65l-.085.51h-3.47a53.14 53.14 0 0 1-.08-.51c.303-.055.59-.106.887-.157.003-.067.013-.127.013-.188V6.573c0-.367-.035-.737-.294-1.024-.373-.418-.86-.43-1.352-.29-.29.083-.568.23-.832.38-.345.194-.676.42-1.005.644-.06.041-.124.137-.124.21a833.13 833.13 0 0 0-.003 4.898c0 .03.006.055.012.102l.976.157-.073.513h-3.47c-.025-.15-.057-.316-.089-.51.424-.054.835-.105 1.257-.16V5.195c-.409.038-.81.073-1.232.115-.028-.172-.06-.341-.095-.542.855-.188 1.649-.574 2.564-.584l.108 1.429 1.1-.73c.303-.201.629-.374.9-.613.38-.331.8-.34 1.25-.277.096.013.194.025.29.044.89.182 1.31.651 1.403 1.576.032.319.048.64.051.96.007 1.556.003 3.112.003 4.668v.252c.463.051.912.102 1.39.157zM98.924 4.216c.025.162.05.328.076.513-.309.048-.602.096-.899.134-.147.02-.24.067-.3.227-.86 2.245-1.706 4.493-2.608 6.719-.58 1.432-1.244 2.829-1.876 4.241-.022.051-.095.112-.143.112-.577.006-1.158.006-1.748.006v-1.527c.287 0 .58-.023.868.006.31.032.484-.073.644-.348.415-.71.87-1.396 1.308-2.091.031-.052.057-.106.102-.185-.131.031-.236.06-.36.092-.183-.466-.358-.925-.537-1.384-.723-1.869-1.45-3.74-2.168-5.613-.064-.169-.153-.239-.325-.255-.29-.032-.578-.083-.884-.13.029-.186.054-.355.08-.514h3.603l.087.51-1.187.179.935 2.608c.27.753.558 1.502.806 2.265.106.319.128.666.189 1.001.012.08.019.163.073.252.686-2.031 1.371-4.066 2.063-6.123l-.771-.182.073-.51c.97-.003 1.923-.003 2.899-.003z" fill="#F4F7F9"/><path d="M64.236 8.394c.016-1.25.32-2.328 1.206-3.17.701-.667 1.566-.989 2.49-1.2 1.107-.251 2.845.262 3.645 1.84.788 1.55.763 3.13-.12 4.635-.597 1.017-1.592 1.498-2.699 1.788-1.215.32-2.283.026-3.211-.774-.804-.696-1.18-1.62-1.285-2.663-.02-.176-.02-.348-.026-.456zm6.468-.102c-.026-.278-.035-.558-.08-.833-.13-.803-.43-1.53-1.05-2.088-.956-.865-2.76-1.04-3.517.74-.27.63-.376 1.297-.376 1.977 0 1.04.284 1.986 1.005 2.761.487.527 1.1.807 1.827.775.874-.038 1.416-.552 1.77-1.298.303-.64.398-1.33.42-2.034zM49.749 27.445l.057.542-1.23.242c-.192.039-.387.061-.575.112-.137.038-.185-.013-.23-.13-.14-.37-.29-.737-.443-1.13-.178.131-.341.246-.504.364-.478.348-.96.698-1.438 1.043-.048.035-.108.08-.163.08-.838-.02-1.604-.24-2.072-.996-.437-.704-.418-1.45-.061-2.197.153-.316.357-.52.714-.628 1.085-.335 2.153-.718 3.23-1.072.148-.047.192-.114.186-.264-.016-.466.013-.938-.038-1.4-.084-.724-.45-1.008-1.168-.922-.405.048-.803.163-1.199.268-.076.02-.162.124-.188.207-.102.348-.178.699-.271 1.066h-1.25c0-.39-.003-.772.006-1.152 0-.035.067-.083.112-.102.906-.414 1.814-.823 2.72-1.234.032-.013.064-.032.099-.035.574-.006 1.148-.003 1.68.255.536.262.718.759.782 1.301.048.392.073.791.076 1.19.01 1.15-.01 2.302.013 3.453.007.326.115.651.188.973.03.128.128.179.271.17.227-.014.457-.004.696-.004zm-2.532-3.17c-.09.035-.154.057-.214.083-.74.306-1.474.625-2.22.915-.287.112-.472.297-.51.577-.041.29-.054.6 0 .884.09.456.44.724.906.704.255-.01.535-.06.759-.181.42-.23.807-.517 1.205-.788a.19.19 0 0 0 .074-.134c.003-.68 0-1.352 0-2.06zM49.745 6.486c0-.392-.003-.762.007-1.128 0-.045.063-.103.111-.125.906-.414 1.802-.851 2.727-1.224.261-.106.603-.023.909-.016.111.003.22.028.331.05.871.186 1.302.674 1.334 1.668.047 1.416.035 2.832.05 4.248.004.217.026.43.039.648a.757.757 0 0 0 .025.143c.125.526.17.561.702.561h.405c.016.182.035.345.05.536-.66.128-1.303.249-1.964.377l-.503-1.27c-.055.032-.102.054-.144.083-.532.383-1.071.756-1.588 1.161-.24.188-.475.24-.772.207-.976-.105-1.728-.701-1.935-1.562-.18-.74.003-1.41.44-2.016.044-.06.13-.099.207-.121 1.154-.392 2.309-.781 3.466-1.164.166-.054.236-.121.224-.303-.035-.513-.016-1.033-.08-1.543-.06-.498-.354-.724-.855-.75-.532-.029-1.036.109-1.53.284-.058.02-.112.099-.131.163-.086.309-.17.618-.24.93-.028.128-.076.173-.207.17-.344-.013-.692-.007-1.078-.007zm4.117 1.643-.162.057c-.778.322-1.553.654-2.335.966a.69.69 0 0 0-.414.409c-.16.408-.153.816.019 1.221.118.268.335.421.612.491.424.105.804-.029 1.155-.245.347-.217.685-.456 1.02-.692a.285.285 0 0 0 .102-.182c.007-.664.003-1.327.003-2.025zM72.286 28.366c-.172-.43-.335-.845-.51-1.282-.067.045-.122.08-.176.119-.57.414-1.142.826-1.706 1.246a.564.564 0 0 1-.405.118c-.766-.07-1.464-.293-1.888-.988-.472-.772-.421-1.56.006-2.344a.89.89 0 0 1 .552-.456c1.113-.357 2.22-.743 3.33-1.11.143-.048.194-.111.188-.261-.023-.482-.01-.963-.052-1.442-.047-.587-.366-.874-.937-.886-.517-.01-1.008.124-1.49.296-.053.02-.101.105-.12.172-.087.316-.16.635-.25.95-.015.055-.092.125-.143.128-.37.01-.736.007-1.138.007 0-.39-.003-.762.006-1.136 0-.041.07-.099.118-.12.906-.415 1.815-.827 2.72-1.235.032-.013.067-.029.1-.032.557-.006 1.119.003 1.642.24.424.188.663.538.743.975.08.437.13.884.137 1.327.019 1.192-.007 2.385.016 3.581.006.341.111.683.185 1.017.032.15.14.217.309.204.214-.019.43-.003.67-.003l.05.546c-.653.118-1.294.242-1.957.37zm-.613-4.078c-.041.006-.07.006-.095.016-.842.347-1.687.698-2.526 1.049a.42.42 0 0 0-.147.115c-.328.395-.357 1.208-.025 1.607.115.137.284.258.45.316.459.153.88.003 1.269-.25.328-.21.647-.436.966-.662.048-.035.105-.102.105-.157.007-.672.003-1.349.003-2.034zM75.85 17.282h-1.224l-.08-.492c.485-.264 2.24-.666 2.695-.609v11.452c.456.054.89.102 1.352.156-.022.157-.025.313-.073.45-.016.048-.147.076-.223.076-.676-.006-1.352-.028-2.028-.035-.517-.006-1.03 0-1.576 0-.022-.13-.054-.3-.086-.488.42-.054.826-.105 1.244-.156V17.282zM63.108 21.245h-1.65c-.056-.182-.009-.3.106-.44.271-.325.587-.485 1.014-.418.182.029.373.003.597.003 0-.309-.013-.609.006-.902a.604.604 0 0 1 .13-.328c.211-.259.457-.492.664-.753.137-.172.287-.192.491-.144v2.258H67.1v.72h-2.615c-.003.097-.01.17-.01.243v4.733c0 .054.004.111.004.166.041.912.574 1.065 1.247.947.344-.06.673-.21 1.033-.329.073.144.156.31.249.491-.463.262-.935.482-1.35.778-.513.367-1.042.329-1.594.198-.621-.146-.893-.497-.934-1.167-.016-.265-.022-.53-.022-.794-.004-1.662 0-3.323 0-4.985v-.277zM44.69 5.195c-.407.038-.806.073-1.201.112-.016-.023-.032-.032-.032-.042-.102-.484-.102-.49.376-.615.57-.15 1.145-.297 1.719-.437.127-.032.261-.022.411-.032v2.102l.82-.935c.338-.389.673-.784 1.02-1.164a.457.457 0 0 1 .3-.134c.367-.016.737-.006 1.113-.006v1.508c-.249 0-.498.02-.743-.003-.376-.035-.695.096-1.001.293-.543.348-.986.795-1.372 1.305a.37.37 0 0 0-.063.191 823.646 823.646 0 0 0 0 3.977c0 .032.01.067.012.115.58.05 1.155.102 1.745.156l-.083.58h-4.168c-.026-.16-.051-.325-.08-.513.373-.045.724-.093 1.075-.13.111-.014.181-.033.181-.17-.003-2.031-.003-4.063-.003-6.09-.003-.017-.01-.03-.025-.068zM59.207 21.354c-.338.028-.666.044-.988.086-.198.025-.303-.013-.3-.233 0-.09-.022-.179-.042-.3.903-.2 1.751-.61 2.714-.59v7.319l1.359.16c-.029.175-.054.344-.08.503-.437 0-.86-.003-1.285 0-.74.007-1.477.01-2.217.02-.328.003-.331.006-.379-.313-.01-.06-.013-.125-.02-.21.412-.052.817-.106 1.238-.157v-6.285zM60.011 17.396c.172.02.341.045.514.054.153.007.19.086.207.223.057.447.07.89-.08 1.32-.02.058-.064.147-.105.15-.434.032-.868.173-1.304.036-.068-.023-.147-.106-.16-.172-.09-.463-.102-.925.032-1.385.029-.102.064-.15.178-.153.236-.006.473-.032.709-.047.01-.01.01-.016.01-.026z" fill="#F4F7F9"/></svg>