<svg width="120" height="16" fill="none" xmlns="http://www.w3.org/2000/svg"><g opacity=".8" fill="#F4F7F9"><path d="m42.424 15.67-1.535-2.666c.727-1.373.727-2.988.727-5.088 0-2.666 0-4.604-1.535-6.22C39.03.566 37.656 0 35.879 0c-1.778 0-3.152.646-4.202 1.696-1.536 1.535-1.536 3.473-1.536 6.22 0 2.665-.08 4.604 1.536 6.219 1.13 1.13 2.424 1.696 4.202 1.696.485 0 .889-.08 1.293-.161h5.252zm-8.566-3.393c-.565-.646-.727-1.373-.727-4.361 0-2.989.162-3.716.727-4.362.405-.485 1.132-.808 1.94-.808s1.535.323 1.94.808c.565.646.727 1.373.727 4.362 0 2.988-.162 3.715-.728 4.361-.404.485-1.131.808-1.94.808-.807 0-1.534-.323-1.939-.808zM77.897.162h2.99V15.67h-2.99V.162zM5.657 15.83c-2.344 0-4.122-.485-5.657-2.02l1.94-1.938c.97.97 2.343 1.293 3.717 1.293 1.777 0 2.747-.647 2.747-1.939 0-.565-.162-.97-.485-1.292-.323-.323-.646-.404-1.374-.566l-1.858-.242c-1.293-.162-2.344-.646-2.99-1.292C.97 7.107.566 6.057.566 4.764.566 2.018 2.586.08 5.98.08c2.1 0 3.717.484 5.01 1.777L9.05 3.714c-.97-.969-2.181-1.05-3.151-1.05-1.616 0-2.424.889-2.424 1.939 0 .404.161.807.485 1.13.323.324.808.485 1.454.647l1.859.242c1.454.162 2.343.565 2.99 1.212.808.807 1.212 1.938 1.212 3.311 0 2.989-2.586 4.685-5.818 4.685zM15.839 15.67V.162H26.1v2.665H18.91v3.635h6.14v2.746h-6.14v3.796H26.1v2.666H15.84zM51.877 15.831c-3.152 0-5.738-2.18-5.738-5.492V.162h3.07v10.096c0 1.777 1.051 2.827 2.667 2.827 1.617 0 2.667-1.05 2.667-2.827V.162h2.99v10.177c0 3.311-2.505 5.492-5.657 5.492zM71.92 14.135c-1.05 1.13-2.424 1.696-4.201 1.696-1.778 0-3.152-.646-4.202-1.696-1.536-1.535-1.536-3.473-1.536-6.22 0-2.665-.08-4.603 1.535-6.219C64.567.566 65.942 0 67.72 0c1.777 0 3.07.646 4.201 1.696 1.536 1.535 1.536 3.473 1.536 6.22 0 2.665 0 4.604-1.536 6.219zM69.658 3.554c-.404-.485-1.132-.808-1.94-.808s-1.535.323-1.939.808c-.566.646-.727 1.373-.727 4.362 0 2.988.161 3.715.727 4.361.404.485 1.131.808 1.94.808.808 0 1.535-.323 1.939-.808.566-.646.727-1.373.727-4.361 0-2.989-.162-3.716-.727-4.362zM95.192 15.67l-.89-2.746h-5.494l-.97 2.746h-3.151L90.343.162h2.343l5.657 15.508h-3.151zM91.555 4.685l-1.94 5.654h3.88l-1.94-5.654zM116.119.162h3.878v3.877h-3.878V.162zM106.424 12.358V.162h-1.94v14.135l1.94-1.939zM107.797 13.73l-1.939 1.938h14.141V13.73h-12.202zM110.303 8.481V.161h-1.94V10.42l1.94-1.939zM111.676 9.855l-1.939 1.939h10.262V9.855h-8.323zM114.182 4.604V.162h-1.94v6.38l1.94-1.938zM115.555 5.974l-1.939 1.939H120V5.974h-4.445z"/></g></svg>