<svg width="53" height="35" fill="none" xmlns="http://www.w3.org/2000/svg"><g opacity=".8" fill="#F4F7F9"><path d="M19.834 8.866V6.36l3.761 1.253-3.76 1.253zM12.248 6.36v2.506l-3.76-1.253 3.76-1.253zM17.325 3.823h-2.571L16.04 0l1.285 3.823zM19.607 5.816 17.839 4.05l2.893-1.124-1.125 2.891zM14.24 4.05l-1.768 1.766-1.125-2.891 2.893 1.124zM9.707 24.4V13.896l4.886-1.607L0 7.565v21.912L14.593 34.2V22.826l-4.886 1.575zM22.7 27.346c-.032.386-.16.675-.386.868-.225.193-.546.321-.964.321-.418 0-.74-.128-.996-.385-.258-.257-.354-.61-.354-1.028v-.675c0-.418.129-.771.354-1.028.257-.257.578-.386.996-.386.418 0 .74.097.964.322.225.192.354.514.386.9h-.675a1.078 1.078 0 0 0-.193-.515c-.096-.096-.257-.16-.482-.16a.529.529 0 0 0-.482.256c-.129.161-.16.386-.16.643v.675c0 .257.063.482.16.642.128.16.29.257.482.257.193 0 .386-.064.482-.16.096-.097.16-.257.193-.482h.675v-.065zM27.2 27.732H25.98l-.225.739h-.707l1.19-3.438h.706l1.19 3.438h-.708l-.225-.739zm-1.06-.546h.868l-.45-1.382-.418 1.382zM31.509 27.218v1.253h-.675v-3.438h1.382c.417 0 .707.097.932.29.225.192.321.45.321.803 0 .32-.096.61-.321.803-.225.193-.547.289-.932.289h-.707zm0-.514h.675a.636.636 0 0 0 .45-.16.555.555 0 0 0 .16-.418.61.61 0 0 0-.16-.418.636.636 0 0 0-.45-.16h-.675v1.156zM36.973 28.47h-.675v-3.437h.675v3.438zM42.564 25.546H41.47v2.924h-.675v-2.924h-1.093V25h2.86v.546zM46.647 27.732h-1.222l-.225.739h-.707l1.19-3.438h.707l1.189 3.438h-.707l-.225-.739zm-1.029-.546h.868l-.45-1.382-.418 1.382zM50.728 27.925h1.543v.514h-2.218v-3.406h.675v2.892zM20.892 11.464h2.764l.065 1.414h.032c.61-.707 2.346-1.542 3.696-1.542 2.25 0 3.343 1.22 3.343 3.598v6.908h-2.893v-6.265c0-.835-.096-1.67-1.414-1.67-1.157 0-2.7 1.22-2.7 2.73v5.205H20.86V11.465h.032zM40.756 14.512c-.45-.546-1.093-.868-1.96-.868-1.64 0-2.637 1.06-2.637 2.988s.933 3.052 2.572 3.052c.932 0 1.671-.353 2.25-1.06l1.671 1.639c-1.028 1.285-2.507 1.799-3.921 1.799-3.214 0-5.464-2.12-5.464-5.43 0-3.309 2.314-5.43 5.528-5.43 1.157 0 2.764.418 3.632 1.543l-1.671 1.767zM44.613 11.463h7.618v1.96h-4.79v2.152h4.533v1.896h-4.532v2.345h4.982v1.96h-7.81V11.463z"/><path d="M14.593 12.272V22.81l3.022-.996V11.308l-3.022.964zM16.038 5.562l-1.8 1.028v2.056l1.8 1.028 1.8-1.028V6.59l-1.8-1.028z"/></g></svg>